<?xml version="1.0" standalone="no"?><!DOCTYPE svg PUBLIC "-//W3C//DTD SVG 1.1//EN"
        "http://www.w3.org/Graphics/SVG/1.1/DTD/svg11.dtd">
<svg t="1497919216099" class="icon" style="" viewBox="0 0 1024 1024" version="1.1" xmlns="http://www.w3.org/2000/svg"
     p-id="1044" xmlns:xlink="http://www.w3.org/1999/xlink" width="19" height="19">
    <defs>
        <style type="text/css"></style>
    </defs>
    <path d="M524.8 608c-160 0-288-128-288-288S364.8 32 524.8 32s288 128 288 288-128 288-288 288z m0-512C403.2 96 300.8 198.4 300.8 320s102.4 224 224 224 224-102.4 224-224-102.4-224-224-224z"
          fill="#12bce7" p-id="1045"></path>
    <path d="M140.8 992c-19.2 0-32-12.8-32-32 0-230.4 185.6-416 416-416 102.4 0 198.4 38.4 275.2 102.4 12.8 12.8 12.8 32 0 44.8-12.8 12.8-32 12.8-44.8 0-64-57.6-147.2-89.6-236.8-89.6-192 0-352 160-352 352 6.4 25.6-6.4 38.4-25.6 38.4z"
          fill="#12bce7" p-id="1046"></path>
    <path d="M640 992l-140.8-140.8c-12.8-12.8-12.8-32 0-44.8 12.8-12.8 32-12.8 44.8 0l96 96 294.4-294.4c12.8-12.8 32-12.8 44.8 0s12.8 32 0 44.8L640 992z"
          fill="#12bce7" p-id="1047"></path>
</svg>