<?xml version="1.0" encoding="iso-8859-1"?>
<!-- Generator: Adobe Illustrator 17.0.0, SVG Export Plug-In . SVG Version: 6.00 Build 0)  -->
<!DOCTYPE svg PUBLIC "-//W3C//DTD SVG 1.1//EN" "http://www.w3.org/Graphics/SVG/1.1/DTD/svg11.dtd">
<svg version="1.1" id="Layer_1" xmlns="http://www.w3.org/2000/svg" xmlns:xlink="http://www.w3.org/1999/xlink" x="0px" y="0px"
	 width="512px" height="512px" viewBox="-49 141 512 512" style="enable-background:new -49 141 512 512;" xml:space="preserve">
<g transform="translate(1 1)">
	<path fill="#12bce7" d="M137.733,652H-32.933c-5.12,0-8.533-3.413-8.533-8.533v-204.8c0-5.12,3.413-8.533,8.533-8.533h170.667
		c5.12,0,8.533,3.413,8.533,8.533v204.8C146.267,648.587,142.853,652,137.733,652z M-24.4,634.933h153.6V447.2H-24.4V634.933z"/>
	<path fill="#12bce7" d="M342.533,652h-204.8c-5.12,0-8.533-3.413-8.533-8.533v-256c0-5.12,3.413-8.533,8.533-8.533h204.8
		c5.12,0,8.533,3.413,8.533,8.533v256C351.067,648.587,347.653,652,342.533,652z M146.267,634.933H334V396H146.267V634.933z"/>
	<path fill="#12bce7" d="M35.333,447.2h-51.2c-5.12,0-8.533-3.413-8.533-8.533v-34.133c0-5.12,3.413-8.533,8.533-8.533h51.2
		c5.12,0,8.533,3.413,8.533,8.533v34.133C43.867,443.787,40.453,447.2,35.333,447.2z M-7.333,430.133H26.8v-17.067H-7.333V430.133z"
		/>
	<path fill="#12bce7" d="M137.733,652H69.467c-5.12,0-8.533-3.413-8.533-8.533V472.8c0-5.12,3.413-8.533,8.533-8.533h68.267
		c5.12,0,8.533,3.413,8.533,8.533v170.667C146.267,648.587,142.853,652,137.733,652z M78,634.933h51.2v-153.6H78V634.933z"/>
	<path fill="#12bce7" d="M171.867,652c-5.12,0-8.533-3.413-8.533-8.533V421.6c0-5.12,3.413-8.533,8.533-8.533c5.12,0,8.533,3.413,8.533,8.533
		v221.867C180.4,648.587,176.987,652,171.867,652z"/>
	<path fill="#12bce7" d="M206,652c-5.12,0-8.533-3.413-8.533-8.533V421.6c0-5.12,3.413-8.533,8.533-8.533c5.12,0,8.533,3.413,8.533,8.533v221.867
		C214.533,648.587,211.12,652,206,652z"/>
	<path fill="#12bce7" d="M240.133,652c-5.12,0-8.533-3.413-8.533-8.533V421.6c0-5.12,3.413-8.533,8.533-8.533c5.12,0,8.533,3.413,8.533,8.533
		v221.867C248.667,648.587,245.253,652,240.133,652z"/>
	<path fill="#12bce7" d="M274.267,652c-5.12,0-8.533-3.413-8.533-8.533V421.6c0-5.12,3.413-8.533,8.533-8.533c5.12,0,8.533,3.413,8.533,8.533
		v221.867C282.8,648.587,279.387,652,274.267,652z"/>
	<path fill="#12bce7" d="M308.4,652c-5.12,0-8.533-3.413-8.533-8.533V421.6c0-5.12,3.413-8.533,8.533-8.533c5.12,0,8.533,3.413,8.533,8.533v221.867
		C316.933,648.587,313.52,652,308.4,652z"/>
	<path fill="#12bce7" d="M316.933,396H282.8c-5.12,0-8.533-3.413-8.533-8.533v-34.133c0-5.12,3.413-8.533,8.533-8.533h34.133
		c5.12,0,8.533,3.413,8.533,8.533v34.133C325.467,392.587,322.053,396,316.933,396z M291.333,378.933H308.4v-17.067h-17.067V378.933
		z"/>
	<path fill="#12bce7" d="M444.933,652h-102.4c-5.12,0-8.533-3.413-8.533-8.533V242.4c0-5.12,3.413-8.533,8.533-8.533h102.4
		c5.12,0,8.533,3.413,8.533,8.533v401.067C453.467,648.587,450.053,652,444.933,652z M351.067,634.933H436.4v-384h-85.333V634.933z"
		/>
	<path fill="#12bce7" d="M419.333,250.933h-51.2c-5.12,0-8.533-3.413-8.533-8.533v-34.133c0-5.12,3.413-8.533,8.533-8.533h51.2
		c5.12,0,8.533,3.413,8.533,8.533V242.4C427.867,247.52,424.453,250.933,419.333,250.933z M376.667,233.867H410.8V216.8h-34.133
		V233.867z"/>
	<path fill="#12bce7" d="M137.733,515.467H103.6c-5.12,0-8.533-3.413-8.533-8.533s3.413-8.533,8.533-8.533h34.133c5.12,0,8.533,3.413,8.533,8.533
		S142.853,515.467,137.733,515.467z"/>
	<path fill="#12bce7" d="M137.733,549.6H103.6c-5.12,0-8.533-3.413-8.533-8.533c0-5.12,3.413-8.533,8.533-8.533h34.133
		c5.12,0,8.533,3.413,8.533,8.533C146.267,546.187,142.853,549.6,137.733,549.6z"/>
	<path fill="#12bce7" d="M137.733,583.733H103.6c-5.12,0-8.533-3.413-8.533-8.533s3.413-8.533,8.533-8.533h34.133c5.12,0,8.533,3.413,8.533,8.533
		S142.853,583.733,137.733,583.733z"/>
	<path fill="#12bce7" d="M137.733,617.867H103.6c-5.12,0-8.533-3.413-8.533-8.533s3.413-8.533,8.533-8.533h34.133c5.12,0,8.533,3.413,8.533,8.533
		S142.853,617.867,137.733,617.867z"/>
	<path fill="#12bce7" d="M299.867,361.867c-5.12,0-8.533-3.413-8.533-8.533v-17.067c0-5.12,3.413-8.533,8.533-8.533c5.12,0,8.533,3.413,8.533,8.533
		v17.067C308.4,358.453,304.987,361.867,299.867,361.867z"/>
	<path fill="#12bce7" d="M103.6,447.2c-5.12,0-8.533-3.413-8.533-8.533V242.4c0-5.12,3.413-8.533,8.533-8.533s8.533,3.413,8.533,8.533v196.267
		C112.133,443.787,108.72,447.2,103.6,447.2z"/>
	<path fill="#12bce7" d="M137.733,396c-5.12,0-8.533-3.413-8.533-8.533V242.4c0-5.12,3.413-8.533,8.533-8.533c5.12,0,8.533,3.413,8.533,8.533
		v145.067C146.267,392.587,142.853,396,137.733,396z"/>
	<path fill="#12bce7" d="M171.867,396c-5.12,0-8.533-3.413-8.533-8.533V242.4c0-5.12,3.413-8.533,8.533-8.533c5.12,0,8.533,3.413,8.533,8.533
		v145.067C180.4,392.587,176.987,396,171.867,396z"/>
	<path fill="#12bce7" d="M206,396c-5.12,0-8.533-3.413-8.533-8.533V242.4c0-5.12,3.413-8.533,8.533-8.533c5.12,0,8.533,3.413,8.533,8.533v145.067
		C214.533,392.587,211.12,396,206,396z"/>
	<path fill="#12bce7" d="M376.667,609.333c-5.12,0-8.533-3.413-8.533-8.533v-17.067c0-5.12,3.413-8.533,8.533-8.533s8.533,3.413,8.533,8.533V600.8
		C385.2,605.92,381.787,609.333,376.667,609.333z M376.667,558.133c-5.12,0-8.533-3.413-8.533-8.533v-17.067
		c0-5.12,3.413-8.533,8.533-8.533s8.533,3.413,8.533,8.533V549.6C385.2,554.72,381.787,558.133,376.667,558.133z M376.667,506.933
		c-5.12,0-8.533-3.413-8.533-8.533v-17.067c0-5.12,3.413-8.533,8.533-8.533s8.533,3.413,8.533,8.533V498.4
		C385.2,503.52,381.787,506.933,376.667,506.933z M376.667,455.733c-5.12,0-8.533-3.413-8.533-8.533v-17.067
		c0-5.12,3.413-8.533,8.533-8.533s8.533,3.413,8.533,8.533V447.2C385.2,452.32,381.787,455.733,376.667,455.733z M376.667,404.533
		c-5.12,0-8.533-3.413-8.533-8.533v-17.067c0-5.12,3.413-8.533,8.533-8.533s8.533,3.413,8.533,8.533V396
		C385.2,401.12,381.787,404.533,376.667,404.533z M376.667,353.333c-5.12,0-8.533-3.413-8.533-8.533v-17.067
		c0-5.12,3.413-8.533,8.533-8.533s8.533,3.413,8.533,8.533V344.8C385.2,349.92,381.787,353.333,376.667,353.333z M376.667,302.133
		c-5.12,0-8.533-3.413-8.533-8.533v-17.067c0-5.12,3.413-8.533,8.533-8.533s8.533,3.413,8.533,8.533V293.6
		C385.2,298.72,381.787,302.133,376.667,302.133z"/>
	<path fill="#12bce7" d="M410.8,609.333c-5.12,0-8.533-3.413-8.533-8.533v-17.067c0-5.12,3.413-8.533,8.533-8.533s8.533,3.413,8.533,8.533V600.8
		C419.333,605.92,415.92,609.333,410.8,609.333z M410.8,558.133c-5.12,0-8.533-3.413-8.533-8.533v-17.067
		c0-5.12,3.413-8.533,8.533-8.533s8.533,3.413,8.533,8.533V549.6C419.333,554.72,415.92,558.133,410.8,558.133z M410.8,506.933
		c-5.12,0-8.533-3.413-8.533-8.533v-17.067c0-5.12,3.413-8.533,8.533-8.533s8.533,3.413,8.533,8.533V498.4
		C419.333,503.52,415.92,506.933,410.8,506.933z M410.8,455.733c-5.12,0-8.533-3.413-8.533-8.533v-17.067
		c0-5.12,3.413-8.533,8.533-8.533s8.533,3.413,8.533,8.533V447.2C419.333,452.32,415.92,455.733,410.8,455.733z M410.8,404.533
		c-5.12,0-8.533-3.413-8.533-8.533v-17.067c0-5.12,3.413-8.533,8.533-8.533s8.533,3.413,8.533,8.533V396
		C419.333,401.12,415.92,404.533,410.8,404.533z M410.8,353.333c-5.12,0-8.533-3.413-8.533-8.533v-17.067
		c0-5.12,3.413-8.533,8.533-8.533s8.533,3.413,8.533,8.533V344.8C419.333,349.92,415.92,353.333,410.8,353.333z M410.8,302.133
		c-5.12,0-8.533-3.413-8.533-8.533v-17.067c0-5.12,3.413-8.533,8.533-8.533s8.533,3.413,8.533,8.533V293.6
		C419.333,298.72,415.92,302.133,410.8,302.133z"/>
	<path fill="#12bce7" d="M1.2,600.8c-5.12,0-8.533-3.413-8.533-8.533V575.2c0-5.12,3.413-8.533,8.533-8.533s8.533,3.413,8.533,8.533v17.067
		C9.733,597.387,6.32,600.8,1.2,600.8z M1.2,549.6c-5.12,0-8.533-3.413-8.533-8.533V524c0-5.12,3.413-8.533,8.533-8.533
		S9.733,518.88,9.733,524v17.067C9.733,546.187,6.32,549.6,1.2,549.6z M1.2,498.4c-5.12,0-8.533-3.413-8.533-8.533V472.8
		c0-5.12,3.413-8.533,8.533-8.533s8.533,3.413,8.533,8.533v17.067C9.733,494.987,6.32,498.4,1.2,498.4z"/>
	<path fill="#12bce7" d="M35.333,600.8c-5.12,0-8.533-3.413-8.533-8.533V575.2c0-5.12,3.413-8.533,8.533-8.533s8.533,3.413,8.533,8.533v17.067
		C43.867,597.387,40.453,600.8,35.333,600.8z M35.333,549.6c-5.12,0-8.533-3.413-8.533-8.533V524c0-5.12,3.413-8.533,8.533-8.533
		s8.533,3.413,8.533,8.533v17.067C43.867,546.187,40.453,549.6,35.333,549.6z M35.333,498.4c-5.12,0-8.533-3.413-8.533-8.533V472.8
		c0-5.12,3.413-8.533,8.533-8.533s8.533,3.413,8.533,8.533v17.067C43.867,494.987,40.453,498.4,35.333,498.4z"/>
	<path fill="#12bce7" d="M137.733,447.2H69.467c-5.12,0-8.533-3.413-8.533-8.533v-230.4c0-5.12,3.413-8.533,8.533-8.533h25.6v-51.2
		c0-5.12,3.413-8.533,8.533-8.533H206c5.12,0,8.533,3.413,8.533,8.533v51.2h25.6c5.12,0,8.533,3.413,8.533,8.533v179.2
		c0,5.12-3.413,8.533-8.533,8.533h-93.867v42.667C146.267,443.787,142.853,447.2,137.733,447.2z M78,430.133h51.2v-42.667
		c0-5.12,3.413-8.533,8.533-8.533H231.6V216.8H206c-5.12,0-8.533-3.413-8.533-8.533v-51.2h-85.333v51.2
		c0,5.12-3.413,8.533-8.533,8.533H78V430.133z"/>
	<path fill="#12bce7" d="M137.733,216.8c-5.12,0-8.533-3.413-8.533-8.533v-25.6c0-5.12,3.413-8.533,8.533-8.533c5.12,0,8.533,3.413,8.533,8.533
		v25.6C146.267,213.387,142.853,216.8,137.733,216.8z"/>
	<path fill="#12bce7" d="M171.867,216.8c-5.12,0-8.533-3.413-8.533-8.533v-25.6c0-5.12,3.413-8.533,8.533-8.533c5.12,0,8.533,3.413,8.533,8.533
		v25.6C180.4,213.387,176.987,216.8,171.867,216.8z"/>
</g>
</svg>
