<?xml version="1.0" standalone="no"?><!DOCTYPE svg PUBLIC "-//W3C//DTD SVG 1.1//EN"
        "http://www.w3.org/Graphics/SVG/1.1/DTD/svg11.dtd">
<svg t="1497869084617" class="icon" style="" viewBox="0 0 1050 1024" version="1.1" xmlns="http://www.w3.org/2000/svg"
     p-id="4829" xmlns:xlink="http://www.w3.org/1999/xlink" width="205.078125" height="200">
    <defs>
        <style type="text/css">
            path{
                color:red
            }
        </style>

    </defs>
    <path d="M1023.257909 973.322252l-49.933512 0L973.324397 499.127078c0-27.547453-22.386059-49.899196-49.865952-49.899196l-249.597855 0 0 49.899196 224.598391 0c13.740483 0 25.000536 11.193566 25.000536 24.96622l0 424.295979c0 13.806971-11.260054 24.932976-25.000536 24.932976L598.927614 973.322252l0-848.525469c0-27.547453-22.319571-49.933512-49.865952-49.933512L174.698123 74.863271c-27.547453 0-49.899196 22.386059-49.899196 49.933512l0 848.525469L74.866488 973.322252c-13.773727 0-24.96622 11.193566-24.96622 24.932976 0 13.806971 11.193566 25.000536 24.96622 25.000536l948.391421 0c13.740483 0 25.000536-11.193566 25.000536-25.000536C1048.257373 984.515818 1036.997319 973.322252 1023.257909 973.322252zM549.061662 973.322252 174.698123 973.322252l0-823.592493c0-13.773727 11.193566-24.932976 24.96622-24.932976l324.430027 0c13.773727 0 24.96622 11.159249 24.96622 24.932976L549.061662 973.322252 549.061662 973.322252zM249.564611 449.22681l74.866488 0 0-74.866488-74.866488 0C249.564611 374.360322 249.564611 449.22681 249.564611 449.22681zM249.564611 299.494906l74.866488 0 0-74.899732-74.866488 0C249.564611 224.595174 249.564611 299.494906 249.564611 299.494906zM399.329759 449.22681l74.866488 0 0-74.866488-74.866488 0L399.329759 449.22681zM399.329759 299.494906l74.866488 0 0-74.899732-74.866488 0L399.329759 299.494906z"
          p-id="4830" fill="black"></path>
</svg>